<svg xmlns="http://www.w3.org/2000/svg" viewBox="0 0 32 32">
  <rect width="32" height="32" fill="#faf9f6"/>
  
  <!-- First stripe row -->
  <rect x="0" y="5" width="3" height="8" fill="#666"/>
  <rect x="3" y="5" width="3" height="8" fill="#999"/>
  <rect x="6" y="5" width="3" height="8" fill="#ef4444"/>
  <rect x="9" y="5" width="3" height="8" fill="#ef4444"/>
  <rect x="12" y="5" width="3" height="8" fill="#333"/>
  <rect x="15" y="5" width="3" height="8" fill="#666"/>
  <rect x="18" y="5" width="3" height="8" fill="#999"/>
  <rect x="21" y="5" width="3" height="8" fill="#333"/>
  <rect x="24" y="5" width="3" height="8" fill="#ef4444"/>
  <rect x="27" y="5" width="5" height="8" fill="#666"/>
  
  <!-- Second stripe row -->
  <rect x="0" y="13" width="3" height="8" fill="#333"/>
  <rect x="3" y="13" width="3" height="8" fill="#666"/>
  <rect x="6" y="13" width="3" height="8" fill="#999"/>
  <rect x="9" y="13" width="3" height="8" fill="#333"/>
  <rect x="12" y="13" width="3" height="8" fill="#ef4444"/>
  <rect x="15" y="13" width="3" height="8" fill="#ef4444"/>
  <rect x="18" y="13" width="3" height="8" fill="#ef4444"/>
  <rect x="21" y="13" width="3" height="8" fill="#666"/>
  <rect x="24" y="13" width="3" height="8" fill="#333"/>
  <rect x="27" y="13" width="5" height="8" fill="#999"/>
  
  <!-- Third stripe row -->
  <rect x="0" y="21" width="3" height="8" fill="#999"/>
  <rect x="3" y="21" width="3" height="8" fill="#333"/>
  <rect x="6" y="21" width="3" height="8" fill="#666"/>
  <rect x="9" y="21" width="3" height="8" fill="#333"/>
  <rect x="12" y="21" width="3" height="8" fill="#999"/>
  <rect x="15" y="21" width="3" height="8" fill="#333"/>
  <rect x="18" y="21" width="3" height="8" fill="#ef4444"/>
  <rect x="21" y="21" width="3" height="8" fill="#ef4444"/>
  <rect x="24" y="21" width="3" height="8" fill="#666"/>
  <rect x="27" y="21" width="5" height="8" fill="#333"/>
</svg>